<svg width="82" height="82" viewBox="0 0 82 82" fill="none" xmlns="http://www.w3.org/2000/svg">
<path d="M82 41C82 18.3563 63.6437 0 41 0C18.3563 0 0 18.3563 0 41C0 63.6437 18.3563 82 41 82C63.6437 82 82 63.6437 82 41Z" fill="#F7D9D9"/>
<path d="M32.4592 55.8821H49.5425" stroke="#F25287" stroke-width="3.33333" stroke-linecap="round" stroke-linejoin="round"/>
<path d="M41 48.7629V55.8823" stroke="#F25287" stroke-width="3.33333" stroke-linecap="round" stroke-linejoin="round"/>
<path d="M30.3221 25.625H51.6763" stroke="#F25287" stroke-width="3.33333" stroke-linecap="round" stroke-linejoin="round"/>
<path d="M51.6763 25.625V39.8637C51.6763 42.2239 50.5513 44.4874 48.549 46.1563C46.5467 47.8252 43.8309 48.7628 40.9991 48.7628C38.1674 48.7628 35.4517 47.8252 33.4493 46.1563C31.447 44.4874 30.3221 42.2239 30.3221 39.8637V25.625" stroke="#F25287" stroke-width="3.33333" stroke-linecap="round" stroke-linejoin="round"/>
<path d="M26.052 38.0837C28.4108 38.0837 30.323 36.49 30.323 34.5241C30.323 32.5581 28.4108 30.9644 26.052 30.9644C23.6934 30.9644 21.7812 32.5581 21.7812 34.5241C21.7812 36.49 23.6934 38.0837 26.052 38.0837Z" stroke="#F25287" stroke-width="3.33333" stroke-linecap="round" stroke-linejoin="round"/>
<path d="M55.9487 38.0837C58.3075 38.0837 60.2196 36.49 60.2196 34.5241C60.2196 32.5581 58.3075 30.9644 55.9487 30.9644C53.5901 30.9644 51.6779 32.5581 51.6779 34.5241C51.6779 36.49 53.5901 38.0837 55.9487 38.0837Z" stroke="#F25287" stroke-width="3.33333" stroke-linecap="round" stroke-linejoin="round"/>
</svg>
