<svg width="119" height="25" viewBox="0 0 119 25" fill="none" xmlns="http://www.w3.org/2000/svg">
<g clip-path="url(#clip0_33_35)">
<path d="M34.9049 17.6538H43.3709V15.4587H37.9139V7.19043H34.9049V17.6538Z" fill="#F25287"/>
<path d="M48.3867 16.1904C47.1797 16.1904 46.5507 15.2831 46.5507 13.9222C46.5507 12.5612 47.1797 11.6392 48.3867 11.6392C49.5937 11.6392 50.2397 12.5612 50.2397 13.9222C50.2397 15.2831 49.5937 16.1904 48.3867 16.1904ZM48.4037 17.888C51.2087 17.888 53.0447 16.1758 53.0447 13.9222C53.0447 11.6685 51.2087 9.9563 48.4037 9.9563C45.6157 9.9563 43.7457 11.6685 43.7457 13.9222C43.7457 16.1758 45.6157 17.888 48.4037 17.888Z" fill="#F25287"/>
<path d="M57.9 20.2441C59.192 20.2441 60.331 19.9953 61.096 19.4099C61.793 18.8685 62.252 18.049 62.252 16.9221V10.1612H59.6V10.966H59.566C59.056 10.3368 58.274 9.94165 57.118 9.94165C54.959 9.94165 53.463 11.4929 53.463 13.688C53.463 15.9856 55.282 17.2441 57.237 17.2441C58.291 17.2441 58.954 16.8782 59.464 16.3807H59.532V17.127C59.532 18.0343 59.039 18.5612 57.866 18.5612C56.948 18.5612 56.489 18.2246 56.336 17.8295H53.65C53.922 19.3953 55.503 20.2441 57.9 20.2441ZM57.883 15.4734C56.846 15.4734 56.166 14.7417 56.166 13.6148C56.166 12.4734 56.846 11.7417 57.883 11.7417C59.039 11.7417 59.651 12.5904 59.651 13.6002C59.651 14.6538 59.09 15.4734 57.883 15.4734Z" fill="#F25287"/>
<path d="M67.705 16.1904C66.498 16.1904 65.869 15.2831 65.869 13.9222C65.869 12.5612 66.498 11.6392 67.705 11.6392C68.912 11.6392 69.558 12.5612 69.558 13.9222C69.558 15.2831 68.912 16.1904 67.705 16.1904ZM67.722 17.888C70.527 17.888 72.3626 16.1758 72.3626 13.9222C72.3626 11.6685 70.527 9.9563 67.722 9.9563C64.934 9.9563 63.064 11.6685 63.064 13.9222C63.064 16.1758 64.934 17.888 67.722 17.888Z" fill="#F25287"/>
<path d="M73.1722 17.6538H75.9432V10.1612H73.1722V17.6538ZM73.1722 9.12214H75.9432V7.19043H73.1722V9.12214Z" fill="#F25287"/>
<path d="M77.1453 20.127H79.9163V16.8782H79.9503C80.4943 17.5075 81.2933 17.888 82.4153 17.888C84.6933 17.888 86.2063 16.3368 86.2063 13.9075C86.2063 11.6538 84.7953 9.94165 82.4833 9.94165C81.2933 9.94165 80.4433 10.3953 79.8483 11.0685H79.7973V10.1612H77.1453V20.127ZM81.7013 16.0441C80.5113 16.0441 79.8313 15.2099 79.8313 13.9953C79.8313 12.7807 80.4433 11.8587 81.6503 11.8587C82.8403 11.8587 83.4013 12.7075 83.4013 13.9953C83.4013 15.2685 82.7553 16.0441 81.7013 16.0441Z" fill="#F25287"/>
<path d="M90.7177 17.888C92.9957 17.888 94.6787 17.0392 94.6787 15.4002C94.6787 13.4831 92.8767 13.1465 91.3467 12.927C90.2417 12.7514 89.2557 12.6782 89.2557 12.1514C89.2557 11.6831 89.7827 11.4636 90.4627 11.4636C91.2277 11.4636 91.7547 11.6685 91.8567 12.3417H94.4067C94.2707 10.8636 92.9447 9.94165 90.4797 9.94165C88.4227 9.94165 86.7227 10.7612 86.7227 12.3417C86.7227 14.0977 88.3377 14.449 89.8507 14.6685C91.0067 14.8441 92.0607 14.9173 92.0607 15.5904C92.0607 16.0734 91.5337 16.3368 90.7007 16.3368C89.7827 16.3368 89.2047 15.9709 89.1027 15.2246H86.4847C86.5697 16.8782 88.1677 17.888 90.7177 17.888Z" fill="#F25287"/>
<path d="M98.4427 17.8733C99.6497 17.8733 100.415 17.4636 101.044 16.7319H101.095V17.6538H103.747V10.1611H100.976V14.3465C100.976 15.2392 100.398 15.8538 99.4457 15.8538C98.5617 15.8538 98.1367 15.4002 98.1367 14.5806V10.1611H95.3827V15.0782C95.3827 16.7465 96.4367 17.8733 98.4427 17.8733Z" fill="#F25287"/>
<path d="M104.952 17.6538H107.723V13.4538C107.723 12.5612 108.233 11.9319 109.1 11.9319C109.933 11.9319 110.324 12.4002 110.324 13.2051V17.6538H113.095V13.4538C113.095 12.5612 113.588 11.9319 114.472 11.9319C115.305 11.9319 115.696 12.4002 115.696 13.2051V17.6538H118.467V12.7807C118.467 11.0977 117.481 9.94165 115.509 9.94165C114.387 9.94165 113.452 10.3514 112.772 11.2587H112.738C112.296 10.4538 111.429 9.94165 110.29 9.94165C109.032 9.94165 108.199 10.4538 107.655 11.2295H107.604V10.1612H104.952V17.6538Z" fill="#F25287"/>
<path d="M17.9987 1.20534L15.2128 0.562744L12.8651 8.10516L10.7456 1.29582L7.95961 1.93841L10.2497 9.29541L4.5457 4.38529L2.50627 6.1409L8.76279 11.5267L0.971296 9.72955L0.224813 12.1277L8.738 14.0914C8.64053 13.7295 8.58897 13.3524 8.58897 12.965C8.58897 10.2225 11.1715 7.99937 14.3573 7.99937C17.5431 7.99937 20.1257 10.2225 20.1257 12.965C20.1257 13.3499 20.0748 13.7247 19.9785 14.0844L27.7155 15.869L28.4619 13.4708L19.9149 11.4994L27.7069 9.70205L26.9604 7.30388L18.4137 9.27523L24.1176 4.36513L22.0782 2.60953L15.9085 7.92065L17.9987 1.20534Z" fill="#F25287"/>
<path d="M19.971 14.1123C19.7321 14.9816 19.2278 15.7625 18.5359 16.3882L24.141 21.2132L26.1804 19.4576L19.971 14.1123Z" fill="#F25287"/>
<path d="M18.4793 16.439C17.779 17.0546 16.8941 17.5141 15.9017 17.7509L17.9413 24.3033L20.7272 23.6607L18.4793 16.439Z" fill="#F25287"/>
<path d="M15.7977 17.7745C15.3373 17.8764 14.8547 17.9306 14.3573 17.9306C13.8245 17.9306 13.3086 17.8684 12.8188 17.752L10.7774 24.3104L13.5632 24.9529L15.7977 17.7745Z" fill="#F25287"/>
<path d="M12.7203 17.7278C11.7431 17.4792 10.8739 17.0139 10.188 16.3965L4.56912 21.2334L6.60854 22.989L12.7203 17.7278Z" fill="#F25287"/>
<path d="M10.1411 16.3539C9.46688 15.7325 8.97579 14.9621 8.74204 14.1062L0.979866 15.8966L1.72634 18.2948L10.1411 16.3539Z" fill="#F25287"/>
</g>
<defs>
<clipPath id="clip0_33_35">
<rect width="119" height="25" fill="white"/>
</clipPath>
</defs>
</svg>
